<?xml version="1.0" encoding="UTF-8" standalone="no"?> <svg width="512" height="512" viewBox="0 0 512 512" fill="none" xmlns="http://www.w3.org/2000/svg">
<path d="M32 128C32 74.9807 74.9807 32 128 32H384C437.019 32 480 74.9807 480 128V384C480 437.019 437.019 480 384 480H128C74.9807 480 32 437.019 32 384V128Z" fill="#597DDC"/>
<path fill-rule="evenodd" clip-rule="evenodd" d="M128 32C74.9807 32 32 74.9807 32 128V368C32 412.183 67.8172 448 112 448H368C412.183 448 448 412.183 448 368V112C448 67.8172 412.183 32 368 32H128Z" fill="#6EBAFF"/>
<path fill-rule="evenodd" clip-rule="evenodd" d="M340 173.852V384C340 395.046 348.954 404 360 404C371.046 404 380 395.046 380 384V136.741C380 109.576 345.206 98.3254 329.301 120.347L256 221.841L182.699 120.347C166.794 98.3255 132 109.576 132 136.741V384C132 395.046 140.954 404 152 404C163.046 404 172 395.046 172 384V173.852L226.816 249.751C241.185 269.647 270.815 269.647 285.184 249.751L340 173.852Z" fill="white"/>
</svg>
